<?xml version="1.0" encoding="UTF-8"?>
<svg xmlns="http://www.w3.org/2000/svg" width="1400" height="900" viewBox="0 0 1400 900">
  <style>
    .box { fill: #ffffff; stroke: #222222; stroke-width:1.8; rx:10; ry:10; }
    .label { font-family: "Helvetica Neue", Arial, sans-serif; font-size:14px; fill:#111111; }
    .title { font-family: "Helvetica Neue", Arial, sans-serif; font-size:16px; font-weight:700; fill:#111111; }
    .icon-stroke { stroke:#111; stroke-width:1.6; fill:none; stroke-linecap:round; stroke-linejoin:round; }
    .connector { stroke:#666666; stroke-width:1.6; fill:none; marker-end:url(#arr); }
  </style>
  <defs>
    <marker id="arr" markerWidth="8" markerHeight="8" refX="7" refY="4" orient="auto">
      <path d="M0,0 L8,4 L0,8 z" fill="#666666" />
    </marker>
  </defs>

  <text x="28" y="36" class="title">Patent-ready diagram — professional vector icons, editable in draw.io</text>

  <!-- ETE Request Intake -->
  <g id="ete" transform="translate(40,80)">
    <rect class="box" x="0" y="0" width="260" height="78" rx="8" ry="8" />
    <!-- document icon (vector) -->
    <g transform="translate(18,18) scale(1.1)">
      <path class="icon-stroke" d="M8 2 H30 V54 H8 Z" />
      <path class="icon-stroke" d="M18 2 V12 H30" />
      <path class="icon-stroke" d="M12 26 H26" />
      <path class="icon-stroke" d="M12 36 H22" />
    </g>
    <text x="80" y="46" class="label">ETE Request Intake</text>
  </g>

  <!-- Signal Collectors -->
  <g id="signal" transform="translate(340,80)">
    <rect class="box" x="0" y="0" width="260" height="78" rx="8" ry="8" />
    <!-- radar/signal waves icon -->
    <g transform="translate(18,18)" >
      <circle class="icon-stroke" cx="14" cy="21" r="6" />
      <path class="icon-stroke" d="M3 32 a18 18 0 0 1 22 0" />
      <path class="icon-stroke" d="M0 36 a24 24 0 0 1 30 0" />
      <circle cx="14" cy="21" r="1.2" fill="#111" />
    </g>
    <text x="80" y="46" class="label">Signal Collectors</text>
    <text x="80" y="62" class="label" font-size="12">identity · telemetry · context</text>
  </g>

  <!-- Slot Indexer -->
  <g id="slot" transform="translate(640,80)">
    <rect class="box" x="0" y="0" width="260" height="78" rx="8" ry="8" />
    <!-- database/index icon -->
    <g transform="translate(18,18)">
      <ellipse class="icon-stroke" cx="24" cy="18" rx="22" ry="8" />
      <path class="icon-stroke" d="M2 18 v18 a8 6 0 0 0 44 0 v-18" />
      <path class="icon-stroke" d="M2 28 v18 a8 6 0 0 0 44 0 v-18" />
    </g>
    <text x="80" y="46" class="label">Slot Indexer</text>
    <text x="80" y="62" class="label" font-size="12">acts as matcher & organizer</text>
  </g>

  <!-- Executing Plan -->
  <g id="exec" transform="translate(940,80)">
    <rect class="box" x="0" y="0" width="260" height="78" rx="8" ry="8" />
    <!-- gear icon -->
    <g transform="translate(28,18) scale(0.9)">
      <circle class="icon-stroke" cx="20" cy="20" r="8" />
      <path class="icon-stroke" d="M20 6 v-6 M20 34 v6 M6 20 h-6 M34 20 h6 M7 9 l-4 -4 M33 31 l4 4 M7 31 l-4 4 M33 9 l4 -4" />
      <circle cx="20" cy="20" r="3" fill="#111" />
    </g>
    <text x="110" y="44" class="label">Executing Plan</text>
    <text x="110" y="62" class="label" font-size="12">allocates machine / RAM</text>
  </g>

  <!-- Marker Synthesizer -->
  <g id="marker" transform="translate(40,200)">
    <rect class="box" x="0" y="0" width="260" height="78" rx="8" ry="8" />
    <!-- microscope icon -->
    <g transform="translate(18,16) scale(0.9)">
      <path class="icon-stroke" d="M6 46 L26 26 L34 34 L14 54 z" />
      <path class="icon-stroke" d="M30 10 L44 24" />
      <path class="icon-stroke" d="M22 8 a6 6 0 1 1 -12 0 a6 6 0 1 1 12 0" />
      <path class="icon-stroke" d="M6 46 L16 56" />
    </g>
    <text x="80" y="46" class="label">Marker Synthesizer</text>
    <text x="80" y="62" class="label" font-size="12">synthesizes signals & metadata</text>
  </g>

  <!-- Override Module (center large) -->
  <g id="override" transform="translate(340,220)">
    <rect class="box" x="0" y="0" width="560" height="118" rx="10" ry="10" />
    <!-- wrench icon -->
    <g transform="translate(22,38) scale(1.1)">
      <path class="icon-stroke" d="M6 6 L14 14 L12 18 L18 24 L22 20 L28 26 L24 30 L18 24" />
      <path class="icon-stroke" d="M34 10 a10 10 0 1 1 -14 14" />
    </g>
    <text x="84" y="56" class="label" style="font-weight:700;">Override Module</text>
    <text x="84" y="76" class="label" font-size="12">applies approved overrides to baseline</text>
    <text x="84" y="92" class="label" font-size="12">adjusts RAM/licenses/performance</text>
  </g>

  <!-- Drift & Conflict Manager -->
  <g id="drift" transform="translate(340,360)">
    <rect class="box" x="0" y="0" width="560" height="78" rx="8" ry="8" />
    <!-- scales icon -->
    <g transform="translate(22,18) scale(1)">
      <path class="icon-stroke" d="M30 6 v38" />
      <path class="icon-stroke" d="M6 40 h48" />
      <path class="icon-stroke" d="M30 10 a8 8 0 0 0 -8 8 l-12 14 h40 l-12 -14 a8 8 0 0 0 -8 -8" />
      <path class="icon-stroke" d="M12 36 a8 8 0 0 0 16 0" />
      <path class="icon-stroke" d="M36 36 a8 8 0 0 1 16 0" />
    </g>
    <text x="120" y="46" class="label">Drift & Conflict Manager</text>
    <text x="120" y="64" class="label" font-size="12">validates overrides, resolves conflicts</text>
  </g>

  <!-- Executor -->
  <g id="executor" transform="translate(940,220)">
    <rect class="box" x="0" y="0" width="260" height="78" rx="8" ry="8" />
    <!-- rocket icon -->
    <g transform="translate(18,18) scale(0.95)">
      <path class="icon-stroke" d="M18 4 l6 10 a10 10 0 0 1 -12 0 z" />
      <path class="icon-stroke" d="M18 24 v24" />
      <path class="icon-stroke" d="M10 44 c4 6 16 6 20 0" />
    </g>
    <text x="80" y="46" class="label">Executor</text>
  </g>

  <!-- Connectors (arrows) -->
  <path class="connector" d="M300 118 L340 118" />
  <path class="connector" d="M600 118 L640 118" />
  <path class="connector" d="M900 118 L940 118" />
  <path class="connector" d="M430 198 L430 220" />
  <path class="connector" d="M740 198 L740 220" />
  <path class="connector" d="M680 298 L840 298" />
  <path class="connector" d="M900 298 L940 298" />

  <text x="28" y="820" class="label" font-size="12">Notes: All icons are vector path groups so they remain editable in draw.io. You may replace any icon with draw.io's native shapes after import if needed.</text>
</svg>
